<svg width="64" height="64" viewBox="0 0 64 64" fill="none" xmlns="http://www.w3.org/2000/svg">
<path d="M50.0621 26.255C50.008 26.0907 49.9093 25.9447 49.7769 25.8334C49.6445 25.7221 49.4837 25.6499 49.3125 25.6249L37.9257 23.9674L32.8331 13.6495C32.7565 13.4938 32.6378 13.3627 32.4905 13.2711C32.3431 13.1794 32.1731 13.1309 31.9996 13.1309C31.8261 13.1309 31.6561 13.1794 31.5088 13.2711C31.3614 13.3627 31.2427 13.4938 31.1661 13.6495L26.0735 23.9674L14.6867 25.6249C14.515 25.6498 14.3537 25.7223 14.2211 25.8341C14.0885 25.9459 13.9898 26.0926 13.9361 26.2576C13.8825 26.4226 13.8761 26.5993 13.9177 26.7677C13.9593 26.9362 14.0472 27.0896 14.1714 27.2107L22.4111 35.2405L20.4662 46.5806C20.4366 46.7516 20.4556 46.9275 20.5208 47.0883C20.5861 47.2491 20.6952 47.3884 20.8356 47.4904C20.976 47.5925 21.1421 47.6531 21.3152 47.6656C21.4883 47.678 21.6615 47.6417 21.815 47.5607L31.9996 42.2063L42.1842 47.5607C42.3377 47.6417 42.5109 47.678 42.684 47.6656C42.8571 47.6531 43.0233 47.5925 43.1637 47.4904C43.3041 47.3884 43.4131 47.2491 43.4784 47.0883C43.5437 46.9275 43.5626 46.7516 43.533 46.5806L41.5881 35.2405L49.8278 27.208C49.9518 27.0868 50.0394 26.9333 50.0808 26.7649C50.1222 26.5965 50.1157 26.4199 50.0621 26.255ZM39.9402 34.2497C39.8325 34.3551 39.7521 34.4851 39.7058 34.6284C39.6596 34.7718 39.6488 34.9242 39.6746 35.0726L41.3841 45.0384L32.432 40.3331C32.2986 40.263 32.1501 40.2263 31.9993 40.2263C31.8486 40.2263 31.7001 40.263 31.5666 40.3331L22.6167 45.0384L24.3262 35.0726C24.352 34.9242 24.3413 34.7718 24.295 34.6284C24.2487 34.4851 24.1683 34.3551 24.0606 34.2497L16.8181 27.1916L26.8247 25.7375C26.9739 25.7158 27.1156 25.6581 27.2376 25.5695C27.3596 25.4808 27.4582 25.3638 27.5249 25.2286L31.9996 16.1612L36.4743 25.2286C36.541 25.3638 36.6396 25.4808 36.7616 25.5695C36.8836 25.6581 37.0253 25.7158 37.1745 25.7375L47.1811 27.1916L39.9402 34.2497Z" fill="#FFC107"/>
<path d="M32 0.789062C25.8271 0.789062 19.7928 2.61955 14.6601 6.04905C9.52753 9.47856 5.52715 14.353 3.16487 20.0561C0.802586 25.7591 0.184505 32.0346 1.38879 38.089C2.59307 44.1433 5.56562 49.7045 9.93055 54.0695C14.2955 58.4344 19.8567 61.4069 25.9111 62.6112C31.9654 63.8155 38.2409 63.1974 43.9439 60.8351C49.647 58.4729 54.5215 54.4725 57.951 49.3399C61.3805 44.2073 63.2109 38.1729 63.2109 32C63.2017 23.7252 59.9104 15.792 54.0592 9.94078C48.2081 4.08961 40.2748 0.798343 32 0.789062ZM32 61.3516C26.1948 61.3516 20.52 59.6301 15.6932 56.4049C10.8663 53.1797 7.10426 48.5957 4.88271 43.2324C2.66116 37.8691 2.0799 31.9674 3.21243 26.2738C4.34497 20.5801 7.14044 15.3502 11.2453 11.2453C15.3502 7.14042 20.5802 4.34496 26.2738 3.21242C31.9675 2.07988 37.8691 2.66114 43.2324 4.88269C48.5957 7.10424 53.1798 10.8663 56.4049 15.6931C59.6301 20.52 61.3516 26.1948 61.3516 32C61.3427 39.7818 58.2475 47.2423 52.7449 52.7449C47.2424 58.2475 39.7818 61.3427 32 61.3516Z" fill="#FFC107"/>
<path d="M31.9994 7.72705C27.1987 7.72705 22.5058 9.15063 18.5141 11.8178C14.5225 14.4849 11.4114 18.2758 9.57423 22.7111C7.73708 27.1463 7.2564 32.0268 8.19297 36.7353C9.12954 41.4437 11.4413 45.7687 14.8359 49.1633C18.2305 52.5579 22.5555 54.8697 27.264 55.8063C31.9725 56.7429 36.8529 56.2622 41.2882 54.425C45.7235 52.5879 49.5144 49.4768 52.1815 45.4851C54.8486 41.4935 56.2722 36.8006 56.2722 31.9999C56.265 25.5645 53.7054 19.3948 49.1549 14.8443C44.6045 10.2938 38.4347 7.73422 31.9994 7.72705ZM31.9994 54.4133C27.5664 54.4133 23.233 53.0988 19.5471 50.636C15.8613 48.1731 12.9885 44.6726 11.2921 40.5771C9.59565 36.4816 9.15179 31.975 10.0166 27.6272C10.8814 23.2794 13.0161 19.2857 16.1507 16.1512C19.2853 13.0166 23.279 10.8819 27.6267 10.0171C31.9745 9.15227 36.4811 9.59613 40.5766 11.2925C44.6722 12.989 48.1727 15.8618 50.6355 19.5476C53.0983 23.2335 54.4128 27.5669 54.4128 31.9999C54.4062 37.9422 52.0427 43.6394 47.8408 47.8413C43.6389 52.0432 37.9418 54.4067 31.9994 54.4133Z" fill="#FFC107"/>
</svg>
