<svg width="95" height="107" viewBox="0 0 95 107" fill="none" xmlns="http://www.w3.org/2000/svg">
<path d="M39.6191 64.0743L40.7121 65.8787C42.3418 68.5687 43.2183 71.7958 43.2183 75.1062C43.2183 77.1283 42.891 79.1318 42.2542 81.0083L40.7978 85.3004H54.2008L52.7444 81.0083C52.1076 79.1318 51.7804 77.1283 51.7804 75.1062C51.7804 71.7958 52.6568 68.5687 54.2865 65.8787L55.3791 64.0749" stroke="#215479" stroke-width="2.4" stroke-miterlimit="10" stroke-linecap="round" stroke-linejoin="round"/>
<path d="M20.0302 22.7255H10.1506C9.29567 22.7255 8.62818 23.4603 8.70759 24.3115C8.95315 26.9438 9.54081 30.3697 10.8846 33.9202C13.1408 39.8816 16.8325 44.5104 21.9114 47.7675" stroke="#215479" stroke-width="2.4" stroke-miterlimit="10" stroke-linecap="round" stroke-linejoin="round"/>
<path d="M30.2067 59.0989C14.0185 55.0262 6.98599 44.4725 3.93461 36.2193C0.596502 27.1909 1.27194 19.0838 1.30224 18.7432C1.47047 16.8569 3.05123 15.4109 4.94505 15.4109H20.0295" stroke="#215479" stroke-width="2.4" stroke-miterlimit="10" stroke-linecap="round" stroke-linejoin="round"/>
<path d="M74.9688 22.7254H84.8483C85.7032 22.7254 86.3707 23.4602 86.2913 24.3114C86.1528 25.7954 85.9057 27.5317 85.4756 29.4004" stroke="#215479" stroke-width="2.4" stroke-miterlimit="10" stroke-linecap="round" stroke-linejoin="round"/>
<path d="M64.791 59.0989C80.9794 55.0264 88.0121 44.4725 91.0635 36.2193C94.4016 27.1909 93.7262 19.0838 93.6959 18.7432C93.5276 16.8569 91.9469 15.4109 90.053 15.4109H74.9686" stroke="#215479" stroke-width="2.4" stroke-miterlimit="10" stroke-linecap="round" stroke-linejoin="round"/>
<path d="M83.1037 36.3C80.8644 41.0283 77.6049 44.8011 73.3535 47.5944" stroke="#215479" stroke-width="2.4" stroke-miterlimit="10" stroke-linecap="round" stroke-linejoin="round"/>
<path d="M37.0148 1.56535H76.7992C77.8667 1.56535 78.7321 2.43096 78.7321 3.49825V8.35128C78.7321 9.41857 77.8667 10.2842 76.7992 10.2842H18.1985C17.131 10.2842 16.2656 9.41857 16.2656 8.35128V3.49825C16.2656 2.43096 17.131 1.56535 18.1985 1.56535H29.6657" stroke="#215479" stroke-width="2.4" stroke-miterlimit="10" stroke-linecap="round" stroke-linejoin="round"/>
<path d="M47.499 65.2236C32.328 65.2236 20.0293 52.9249 20.0293 37.7539V10.2841H74.9688V37.7539C74.9688 52.9249 62.6701 65.2236 47.499 65.2236Z" stroke="#215479" stroke-width="2.4" stroke-miterlimit="10" stroke-linecap="round" stroke-linejoin="round"/>
<path d="M64.1844 95.3676H30.8125V90.5168C30.8125 87.636 33.1479 85.3006 36.0288 85.3006H58.9681C61.849 85.3006 64.1844 87.636 64.1844 90.5168V95.3676Z" stroke="#215479" stroke-width="2.4" stroke-miterlimit="10" stroke-linecap="round" stroke-linejoin="round"/>
<path d="M71.4571 105.435H23.5418C22.7949 105.435 22.1895 104.829 22.1895 104.082V96.7198C22.1895 95.9731 22.7949 95.3675 23.5418 95.3675H71.4571C72.204 95.3675 72.8092 95.9731 72.8092 96.7198V104.082C72.8092 104.829 72.204 105.435 71.4571 105.435Z" stroke="#215479" stroke-width="2.4" stroke-miterlimit="10" stroke-linecap="round" stroke-linejoin="round"/>
<path d="M49.4432 26.0786L51.4532 30.1513C51.769 30.7912 52.3797 31.2349 53.0858 31.3375L57.5804 31.9906C59.3589 32.2489 60.069 34.4345 58.7821 35.6888L55.5299 38.8591C55.0187 39.3573 54.7855 40.0749 54.9063 40.7784L55.6739 45.2548C55.9777 47.0258 54.1186 48.3766 52.5278 47.5403L48.5078 45.427C47.8763 45.0947 47.1216 45.0947 46.4899 45.427L42.4698 47.5403C40.8793 48.3766 39.0201 47.0258 39.3238 45.2548L40.0916 40.7784C40.2122 40.0749 39.979 39.3573 39.468 38.8591L36.2158 35.6888C34.9288 34.4345 35.639 32.2489 37.4174 31.9906L41.9118 31.3375C42.6182 31.2349 43.2287 30.7912 43.5444 30.1513L45.5547 26.0786C46.3498 24.4669 48.6478 24.4669 49.4432 26.0786Z" stroke="#215479" stroke-width="2.4" stroke-miterlimit="10" stroke-linecap="round" stroke-linejoin="round"/>
</svg>
