<svg width="99" height="99" viewBox="0 0 99 99" fill="none" xmlns="http://www.w3.org/2000/svg">
<path d="M77.9227 40.4601C77.8377 40.2016 77.6823 39.9719 77.4739 39.7968C77.2656 39.6216 77.0125 39.508 76.7432 39.4687L58.8258 36.8606L50.8125 20.625C50.6918 20.3801 50.505 20.1738 50.2732 20.0296C50.0414 19.8854 49.7739 19.809 49.5009 19.809C49.2279 19.809 48.9603 19.8854 48.7285 20.0296C48.4967 20.1738 48.3099 20.3801 48.1893 20.625L40.176 36.8606L22.2585 39.4687C21.9884 39.5079 21.7346 39.622 21.5259 39.7979C21.3172 39.9738 21.1618 40.2047 21.0775 40.4643C20.9931 40.7239 20.9831 41.0019 21.0485 41.267C21.1139 41.532 21.2522 41.7734 21.4476 41.964L34.413 54.5992L31.3527 72.4431C31.3062 72.7122 31.336 72.9889 31.4387 73.242C31.5414 73.495 31.713 73.7142 31.9339 73.8748C32.1548 74.0353 32.4163 74.1308 32.6887 74.1503C32.9611 74.1699 33.2335 74.1127 33.4751 73.9854L49.5009 65.56L65.5266 73.9854C65.7682 74.1127 66.0407 74.1699 66.313 74.1503C66.5854 74.1308 66.8469 74.0353 67.0678 73.8748C67.2888 73.7142 67.4603 73.495 67.563 73.242C67.6658 72.9889 67.6956 72.7122 67.6491 72.4431L64.5887 54.5992L77.5541 41.9598C77.7491 41.769 77.887 41.5275 77.9521 41.2625C78.0173 40.9975 78.0071 40.7196 77.9227 40.4601ZM61.9956 53.0401C61.8262 53.2059 61.6996 53.4104 61.6268 53.636C61.554 53.8616 61.5372 54.1015 61.5777 54.335L64.2677 70.0164L50.1813 62.6125C49.9713 62.5021 49.7377 62.4445 49.5005 62.4445C49.2632 62.4445 49.0296 62.5021 48.8196 62.6125L34.7365 70.0164L37.4266 54.335C37.4671 54.1015 37.4502 53.8616 37.3774 53.636C37.3046 53.4104 37.178 53.2059 37.0086 53.0401L25.6123 41.9339L41.358 39.6459C41.5928 39.6117 41.8158 39.521 42.0077 39.3815C42.1996 39.242 42.3548 39.0579 42.4598 38.8451L49.5009 24.5773L56.542 38.8451C56.647 39.0579 56.8021 39.242 56.994 39.3815C57.186 39.521 57.4089 39.6117 57.6437 39.6459L73.3895 41.9339L61.9956 53.0401Z" fill="#215479"/>
<path d="M49.5 0.388672C39.7867 0.388672 30.2915 3.269 22.2152 8.66542C14.1389 14.0618 7.84419 21.732 4.12707 30.7059C0.409951 39.6798 -0.562617 49.5545 1.33235 59.0811C3.22733 68.6078 7.90473 77.3586 14.7731 84.227C21.6414 91.0953 30.3922 95.7727 39.9189 97.6677C49.4455 99.5626 59.3202 98.5901 68.2941 94.8729C77.268 91.1558 84.9382 84.8611 90.3346 76.7848C95.731 68.7085 98.6113 59.2133 98.6113 49.5C98.5967 36.4793 93.4178 23.9962 84.2108 14.7892C75.0038 5.58218 62.5207 0.403275 49.5 0.388672ZM49.5 95.6855C40.3654 95.6855 31.4359 92.9768 23.8407 87.9019C16.2455 82.8269 10.3258 75.6137 6.83014 67.1744C3.33447 58.7351 2.41984 49.4488 4.20192 40.4896C5.984 31.5305 10.3827 23.3011 16.8419 16.8419C23.3011 10.3827 31.5305 5.98397 40.4897 4.20189C49.4488 2.41982 58.7352 3.33444 67.1745 6.83012C75.6138 10.3258 82.827 16.2455 87.9019 23.8407C92.9768 31.4359 95.6856 40.3654 95.6856 49.5C95.6716 61.7449 90.8012 73.4843 82.1427 82.1427C73.4843 90.8012 61.7449 95.6716 49.5 95.6855Z" fill="#215479"/>
<path d="M49.5006 11.306C41.9466 11.306 34.5622 13.5461 28.2812 17.7429C22.0002 21.9397 17.1048 27.9048 14.214 34.8838C11.3232 41.8628 10.5668 49.5424 12.0405 56.9513C13.5143 64.3602 17.1519 71.1657 22.4934 76.5072C27.8349 81.8488 34.6405 85.4864 42.0494 86.9601C49.4583 88.4338 57.1378 87.6775 64.1168 84.7867C71.0959 81.8959 77.061 77.0004 81.2578 70.7195C85.4546 64.4385 87.6946 57.0541 87.6946 49.5C87.6833 39.3738 83.6557 29.6656 76.4954 22.5053C69.3351 15.3449 59.6269 11.3173 49.5006 11.306ZM49.5006 84.7682C42.5253 84.7682 35.7065 82.6998 29.9067 78.8245C24.1069 74.9491 19.5864 69.441 16.9171 62.9966C14.2477 56.5522 13.5493 49.4609 14.9101 42.6195C16.2709 35.7782 19.6299 29.494 24.5623 24.5616C29.4946 19.6293 35.7788 16.2703 42.6202 14.9095C49.4615 13.5486 56.5528 14.2471 62.9972 16.9164C69.4416 19.5858 74.9498 24.1062 78.8251 29.9061C82.7004 35.7059 84.7688 42.5246 84.7688 49.5C84.7584 58.8505 81.0394 67.8151 74.4275 74.4269C67.8157 81.0387 58.8512 84.7578 49.5006 84.7682Z" fill="#215479"/>
</svg>
