<svg width="11" height="11" viewBox="0 0 11 11" fill="none" xmlns="http://www.w3.org/2000/svg">
<path d="M10.9713 4.21961C10.8993 3.99687 10.7018 3.83867 10.468 3.8176L7.29312 3.52932L6.03768 0.590837C5.94511 0.375484 5.73429 0.236084 5.50006 0.236084C5.26582 0.236084 5.055 0.375484 4.96243 0.591341L3.70699 3.52932L0.531583 3.8176C0.29827 3.83917 0.101213 3.99687 0.0287851 4.21961C-0.0436427 4.44235 0.023246 4.68665 0.199741 4.84066L2.59959 6.94534L1.89193 10.0626C1.84015 10.2918 1.92911 10.5287 2.11929 10.6662C2.22151 10.74 2.3411 10.7776 2.4617 10.7776C2.56569 10.7776 2.66883 10.7496 2.7614 10.6942L5.50006 9.05741L8.23771 10.6942C8.43804 10.8147 8.69057 10.8037 8.88032 10.6662C9.07058 10.5283 9.15946 10.2913 9.10768 10.0626L8.40002 6.94534L10.7999 4.84108C10.9764 4.68665 11.0438 4.44277 10.9713 4.21961Z" fill="#FFC107"/>
</svg>
