<svg width="75" height="75" viewBox="0 0 75 75" fill="none" xmlns="http://www.w3.org/2000/svg">
<path d="M74.09 29.2471C73.1511 25.0671 71.4965 21.0808 69.1992 17.4645C66.2183 12.7618 62.2335 8.77713 57.5309 5.79617C53.9138 3.49975 49.9267 1.84664 45.7459 0.910036C40.3149 -0.296998 34.6851 -0.296998 29.2541 0.910036C25.0733 1.84699 21.0862 3.50029 17.4691 5.79675C12.7667 8.77632 8.78201 12.7597 5.80079 17.461C3.50299 21.0788 1.84814 25.0666 0.90938 29.2483C-0.303127 34.6805 -0.303127 40.3132 0.90938 45.7454C1.84524 49.9289 3.50028 53.9182 5.80079 57.5356C8.78022 62.2345 12.762 66.2163 17.4609 69.1958C21.0788 71.4967 25.0687 73.152 29.2529 74.0878C34.6833 75.3007 40.3144 75.3007 45.7447 74.0878C49.9294 73.1531 53.9201 71.499 57.5391 69.1993C62.2381 66.22 66.2199 62.2381 69.1992 57.5391C71.5006 53.9212 73.1563 49.931 74.0924 45.7466C75.3053 40.314 75.3053 34.6809 74.0924 29.2483L74.09 29.2471ZM66.7969 42.7442V32.2524L72.2977 30.7548C73.1691 35.208 73.1691 39.788 72.2977 44.2413L66.7969 42.7442ZM66.876 17.6796L61.9271 20.5108L54.5068 13.0923L57.341 8.13816C61.096 10.6842 64.3315 13.9224 66.8742 17.6796H66.876ZM37.5 2.05086C39.7631 2.05466 42.0207 2.27362 44.2424 2.70476L42.7459 8.2032H32.2541L30.7576 2.70418C32.9793 2.27349 35.2369 2.05473 37.5 2.05086ZM17.6813 8.1241L20.5078 13.0624L13.0893 20.4803L8.14454 17.6514C10.6891 13.8985 13.9258 10.665 17.6813 8.1241ZM2.70411 44.2384C1.8334 39.7854 1.8334 35.206 2.70411 30.753L8.20782 32.2507V42.7389L2.70411 44.2384ZM8.14454 57.3452L13.0811 54.5204L20.4996 61.9389L17.6766 66.8708C13.9234 64.3294 10.6884 61.0966 8.14454 57.3452ZM30.7617 72.2948L32.2582 66.7911H42.7459L44.243 72.2948C39.7879 73.1438 35.2126 73.1438 30.7576 72.2948H30.7617ZM57.3469 66.8555L54.5168 61.9085L61.9336 54.4923L66.8742 57.3188C64.333 61.074 61.0995 64.3106 57.3469 66.8555ZM67.9822 55.5868L62.274 52.3243C62.0788 52.2121 61.852 52.1675 61.6288 52.1973C61.4056 52.227 61.1985 52.3295 61.0395 52.4889L52.5129 61.0126C52.3536 61.1715 52.2511 61.3785 52.2213 61.6016C52.1914 61.8246 52.2358 62.0513 52.3477 62.2466L55.6178 67.963C52.7004 69.709 49.5439 71.0201 46.248 71.8548L44.5184 65.4968C44.4594 65.2796 44.3306 65.0878 44.1519 64.9511C43.9731 64.8144 43.7543 64.7403 43.5293 64.7403H31.4707C31.2456 64.7403 31.0267 64.8143 30.8479 64.951C30.669 65.0877 30.5401 65.2795 30.4811 65.4968L28.752 71.8548C25.4646 71.0223 22.3158 69.716 19.4045 67.977L22.667 62.277C22.7788 62.0818 22.8233 61.8551 22.7934 61.632C22.7635 61.409 22.661 61.202 22.5018 61.043L13.9752 52.5159C13.8162 52.3567 13.6091 52.2543 13.3861 52.2246C13.1631 52.1948 12.9364 52.2393 12.7412 52.3512L7.03594 55.6167C5.29012 52.6991 3.97924 49.5424 3.14473 46.2464L9.50215 44.5173C9.71928 44.4581 9.91092 44.3292 10.0475 44.1503C10.1841 43.9715 10.2581 43.7527 10.258 43.5276V31.469C10.2581 31.2441 10.1841 31.0253 10.0475 30.8466C9.91086 30.6678 9.71924 30.539 9.50215 30.48L3.14532 28.7509C3.9821 25.4553 5.29347 22.2989 7.03829 19.3805L12.7512 22.6495C12.9463 22.7616 13.173 22.8062 13.3961 22.7765C13.6192 22.7467 13.8262 22.6442 13.9852 22.4848L22.5117 13.9583C22.671 13.7993 22.7735 13.5923 22.8034 13.3693C22.8332 13.1462 22.7888 12.9196 22.677 12.7243L19.4109 7.01843C22.3212 5.28302 25.4676 3.97846 28.752 3.14539L30.4811 9.49812C30.5402 9.71525 30.6692 9.90689 30.848 10.0435C31.0268 10.1801 31.2457 10.2541 31.4707 10.254H43.5293C43.7543 10.2541 43.9731 10.1802 44.1518 10.0436C44.3306 9.90693 44.4594 9.71525 44.5184 9.49812L46.248 3.14539C49.5409 3.98032 52.6949 5.28931 55.6113 7.03133L52.3377 12.7536C52.2258 12.9489 52.1814 13.1755 52.2113 13.3986C52.2412 13.6216 52.3437 13.8286 52.5029 13.9876L61.0295 22.5141C61.1886 22.6734 61.3957 22.7758 61.6188 22.8057C61.8419 22.8356 62.0687 22.7912 62.2641 22.6794L67.9805 19.4098C69.7157 22.3197 71.0206 25.4654 71.8547 28.7491L65.5008 30.4794C65.2836 30.5384 65.0919 30.6672 64.9552 30.8459C64.8185 31.0247 64.7444 31.2434 64.7443 31.4684V43.527C64.7444 43.7521 64.8185 43.971 64.9552 44.1498C65.0919 44.3286 65.2836 44.4575 65.5008 44.5167L71.8553 46.2458C71.0237 49.5307 69.719 52.6772 67.9822 55.5868Z" fill="white"/>
<path d="M37.5 14.6484C32.9804 14.6484 28.5623 15.9887 24.8044 18.4996C21.0464 21.0106 18.1175 24.5795 16.3879 28.7551C14.6583 32.9307 14.2058 37.5254 15.0875 41.9581C15.9693 46.3909 18.1457 50.4627 21.3415 53.6585C24.5374 56.8543 28.6091 59.0307 33.0419 59.9125C37.4747 60.7942 42.0693 60.3417 46.2449 58.6121C50.4205 56.8825 53.9894 53.9536 56.5004 50.1956C59.0114 46.4377 60.3516 42.0196 60.3516 37.5C60.3448 31.4415 57.935 25.6331 53.651 21.349C49.3669 17.065 43.5585 14.6553 37.5 14.6484ZM37.5 58.3008C33.386 58.3008 29.3644 57.0808 25.9437 54.7952C22.523 52.5096 19.857 49.261 18.2826 45.4601C16.7082 41.6593 16.2963 37.4769 17.0989 33.442C17.9015 29.407 19.8826 25.7007 22.7916 22.7916C25.7007 19.8826 29.407 17.9015 33.442 17.0989C37.4769 16.2963 41.6593 16.7082 45.4601 18.2826C49.261 19.8569 52.5096 22.523 54.7952 25.9437C57.0809 29.3644 58.3008 33.386 58.3008 37.5C58.2946 43.0148 56.1011 48.302 52.2015 52.2015C48.302 56.1011 43.0148 58.2946 37.5 58.3008Z" fill="white"/>
<path d="M38.225 24.1066C38.1299 24.0113 38.0169 23.9357 37.8925 23.8841C37.7681 23.8326 37.6348 23.806 37.5002 23.806C37.3655 23.806 37.2322 23.8326 37.1079 23.8841C36.9835 23.9357 36.8705 24.0113 36.7754 24.1066L28.0748 32.8066C27.0471 33.8331 26.3553 35.1473 26.0907 36.5755C25.8261 38.0037 26.0014 39.4785 26.5932 40.805C27.185 42.1314 28.1655 43.247 29.4051 44.0041C30.6446 44.7612 32.0848 45.1242 33.5351 45.0451C33.1846 46.6677 32.5581 48.2182 31.683 49.6289C31.586 49.7841 31.5323 49.9624 31.5276 50.1454C31.5228 50.3283 31.5671 50.5092 31.6559 50.6693C31.7447 50.8293 31.8748 50.9627 32.0326 51.0554C32.1903 51.1482 32.3701 51.197 32.5531 51.1968H42.4473C42.6303 51.197 42.81 51.1482 42.9678 51.0554C43.1256 50.9627 43.2556 50.8293 43.3444 50.6693C43.4332 50.5092 43.4776 50.3283 43.4728 50.1454C43.4681 49.9624 43.4144 49.7841 43.3174 49.6289C42.4425 48.2191 41.8161 46.6696 41.4652 45.048C42.9162 45.1278 44.3571 44.7651 45.5973 44.0078C46.8376 43.2506 47.8186 42.1346 48.4106 40.8075C49.0025 39.4804 49.1775 38.0048 48.9123 36.5761C48.6471 35.1474 47.9543 33.8329 46.9256 32.8066L38.225 24.1066ZM45.476 41.5089C44.8338 42.1471 44.0347 42.6046 43.1592 42.8354C42.2838 43.0661 41.3629 43.0619 40.4896 42.8232C40.3275 42.7786 40.157 42.7747 39.993 42.8116C39.829 42.8485 39.6766 42.9252 39.5492 43.0349C39.4219 43.1446 39.3235 43.2839 39.2627 43.4407C39.2019 43.5974 39.1805 43.7666 39.2006 43.9335C39.4184 45.7416 39.9306 47.5017 40.717 49.1443H34.2834C35.0703 47.5014 35.5829 45.7408 35.801 43.9324C35.8209 43.7655 35.7994 43.5963 35.7386 43.4397C35.6777 43.283 35.5793 43.1437 35.452 43.0341C35.3247 42.9244 35.1723 42.8477 35.0084 42.8107C34.8445 42.7737 34.674 42.7776 34.5119 42.822C33.4211 43.1232 32.2612 43.0549 31.2133 42.6276C30.1654 42.2004 29.2884 41.4383 28.7191 40.4603C28.1498 39.4823 27.9202 38.3433 28.0662 37.2211C28.2122 36.0989 28.7256 35.0566 29.5262 34.2568L37.5002 26.281L45.476 34.2568C46.4358 35.2192 46.9749 36.523 46.9749 37.8823C46.9749 39.2415 46.4358 40.5453 45.476 41.5078V41.5089Z" fill="white"/>
</svg>
