<svg width="76" height="80" viewBox="0 0 76 80" fill="none" xmlns="http://www.w3.org/2000/svg">
<path d="M43.7834 5.51111L45.0602 3.09905C45.2062 2.82286 45.13 2.48127 44.8805 2.29397C42.2196 0.298413 39.4278 0 37.9999 0C34.6735 0 32.2608 1.43746 31.1186 2.29397C30.8684 2.48127 30.7923 2.82286 30.9389 3.09905L32.2157 5.51111C14.0913 8.32127 0.533203 24.0705 0.533203 42.5276C0.533203 63.1898 17.3408 80 37.9999 80C58.6583 80 75.4659 63.1898 75.4659 42.5276C75.4659 24.0705 61.9072 8.32127 43.7834 5.51111ZM37.9999 1.26984C39.191 1.26984 41.4494 1.50286 43.6773 2.99746L42.2577 5.67937C42.257 5.68063 42.2564 5.6819 42.2551 5.68381L37.9999 13.7232L32.3218 2.9981C33.4551 2.24381 35.4176 1.26984 37.9999 1.26984ZM69.8475 41.8927H44.3796C44.2519 40.6 43.7389 39.419 42.9573 38.4667L60.9326 20.4889C66.323 26.1079 69.6824 33.6629 69.8475 41.8927ZM15.9396 65.4895L33.9396 47.487C34.8919 48.2686 36.0729 48.7816 37.3656 48.9092V74.3797C29.0596 74.2159 21.5269 70.8616 15.9396 65.4895ZM6.15289 43.1625H31.6196C31.7472 44.4552 32.2596 45.6362 33.0411 46.5892L15.0411 64.5918C9.67035 59.0038 6.31606 51.4698 6.15289 43.1625ZM37.3649 15.2381V36.1467C36.0723 36.2743 34.8919 36.7873 33.9396 37.5689L15.9624 19.5892C21.0088 14.7257 27.6424 11.4908 35.0183 10.8044L37.3649 15.2381ZM43.1415 42.5276C43.1415 45.3638 40.8348 47.6717 37.9992 47.6717C35.1637 47.6717 32.8564 45.3638 32.8564 42.5276C32.8564 39.6914 35.1637 37.3841 37.9992 37.3841C40.8348 37.3841 43.1415 39.6921 43.1415 42.5276ZM15.0659 20.4889L33.0411 38.4667C32.2596 39.4197 31.7465 40.6 31.6189 41.8927H6.15162C6.31733 33.6629 9.67606 26.1079 15.0659 20.4889ZM38.6348 48.9092C39.9269 48.7816 41.1078 48.2686 42.0602 47.487L60.0602 65.4902C54.4729 70.8616 46.9402 74.2165 38.6348 74.3797V48.9092ZM60.9573 64.5924L42.9573 46.5892C43.7389 45.6362 44.2513 44.4559 44.3789 43.1625H69.8462C69.683 51.4698 66.3288 59.0038 60.9573 64.5924ZM42.0596 37.5689C41.1072 36.7873 39.9269 36.2749 38.6348 36.1467V15.2381L40.9815 10.8051C48.3567 11.4914 54.991 14.7263 60.0373 19.5892L42.0596 37.5689ZM37.9999 78.7302C18.0405 78.7302 1.80304 62.4902 1.80304 42.5276C1.80304 24.5479 15.118 9.22667 32.8437 6.69778L34.3776 9.59492C26.7751 10.4254 19.9529 13.8565 14.7897 18.9549C14.7103 18.986 14.6354 19.0317 14.5713 19.0959C14.504 19.1632 14.4589 19.2419 14.4278 19.3257C8.51606 25.3454 4.86717 33.5733 4.86717 42.5276C4.86717 51.6317 8.5586 59.8889 14.5205 65.8838C14.5389 65.9086 14.5484 65.9378 14.5713 65.96C14.5942 65.9822 14.6227 65.9924 14.6475 66.0108C20.6418 71.974 28.8976 75.6654 38.0005 75.6654C47.104 75.6654 55.3599 71.9733 61.3548 66.0089C61.3789 65.9911 61.4069 65.9816 61.4291 65.9594C61.4513 65.9371 61.4602 65.9092 61.478 65.8851C67.4418 59.8895 71.1338 51.6317 71.1338 42.5263C71.1338 33.5714 67.485 25.3435 61.5726 19.3238C61.5421 19.2406 61.4964 19.1613 61.4291 19.0946C61.365 19.0305 61.29 18.9848 61.2107 18.9537C56.0469 13.8552 49.2246 10.4248 41.6221 9.59365L43.1561 6.69651C60.8818 9.2254 74.1967 24.5467 74.1967 42.5263C74.1961 62.4902 57.958 78.7302 37.9999 78.7302Z" fill="white"/>
<path d="M34.4766 42.5276C34.4766 44.4711 36.0569 46.052 38.0004 46.052C39.9439 46.052 41.5242 44.4711 41.5242 42.5276C41.5242 40.5841 39.9439 39.0038 38.0004 39.0038C36.0569 39.0038 34.4766 40.5847 34.4766 42.5276ZM40.2543 42.5276C40.2543 43.7708 39.2429 44.7822 38.0004 44.7822C36.7578 44.7822 35.7464 43.7708 35.7464 42.5276C35.7464 41.2851 36.7578 40.2736 38.0004 40.2736C39.2429 40.2736 40.2543 41.2851 40.2543 42.5276Z" fill="white"/>
<path d="M28.6117 21.4946C30.5552 21.4946 32.1355 19.9136 32.1355 17.9701C32.1355 16.0266 30.5552 14.4457 28.6117 14.4457C26.6682 14.4457 25.0879 16.0266 25.0879 17.9701C25.0879 19.9136 26.6682 21.4946 28.6117 21.4946ZM28.6117 15.7155C29.8542 15.7155 30.8657 16.7269 30.8657 17.9701C30.8657 19.2133 29.8542 20.2247 28.6117 20.2247C27.3692 20.2247 26.3577 19.2133 26.3577 17.9701C26.3577 16.7269 27.3692 15.7155 28.6117 15.7155Z" fill="white"/>
<path d="M47.3871 21.4946C49.3306 21.4946 50.9109 19.9136 50.9109 17.9701C50.9109 16.0266 49.3306 14.4457 47.3871 14.4457C45.4436 14.4457 43.8633 16.0266 43.8633 17.9701C43.8633 19.9136 45.4436 21.4946 47.3871 21.4946ZM47.3871 15.7155C48.6296 15.7155 49.6411 16.7269 49.6411 17.9701C49.6411 19.2133 48.6296 20.2247 47.3871 20.2247C46.1445 20.2247 45.1331 19.2133 45.1331 17.9701C45.1331 16.7269 46.1445 15.7155 47.3871 15.7155Z" fill="white"/>
<path d="M28.6117 63.5619C26.6682 63.5619 25.0879 65.1422 25.0879 67.0857C25.0879 69.0292 26.6682 70.6101 28.6117 70.6101C30.5552 70.6101 32.1355 69.0292 32.1355 67.0857C32.1355 65.1422 30.5546 63.5619 28.6117 63.5619ZM28.6117 69.3403C27.3692 69.3403 26.3577 68.3289 26.3577 67.0857C26.3577 65.8432 27.3692 64.8317 28.6117 64.8317C29.8542 64.8317 30.8657 65.8432 30.8657 67.0857C30.865 68.3289 29.8542 69.3403 28.6117 69.3403Z" fill="white"/>
<path d="M13.4457 48.3937C11.5022 48.3937 9.92188 49.9746 9.92188 51.9181C9.92188 53.8616 11.5022 55.4426 13.4457 55.4426C15.3892 55.4426 16.9695 53.8616 16.9695 51.9181C16.9695 49.9746 15.3885 48.3937 13.4457 48.3937ZM13.4457 54.1721C12.2031 54.1721 11.1917 53.1607 11.1917 51.9175C11.1917 50.6743 12.2031 49.6629 13.4457 49.6629C14.6882 49.6629 15.6997 50.6743 15.6997 51.9175C15.6997 53.1607 14.6882 54.1721 13.4457 54.1721Z" fill="white"/>
<path d="M62.5551 36.6623C64.4979 36.6623 66.0782 35.0813 66.0782 33.1378C66.0782 31.1943 64.4979 29.614 62.5551 29.614C60.6116 29.614 59.0312 31.1943 59.0312 33.1378C59.0312 35.0813 60.6116 36.6623 62.5551 36.6623ZM62.5551 30.8845C63.7976 30.8845 64.8084 31.8959 64.8084 33.1385C64.8084 34.3816 63.7976 35.3931 62.5551 35.3931C61.3125 35.3931 60.3011 34.3816 60.3011 33.1385C60.3011 31.8953 61.3125 30.8845 62.5551 30.8845Z" fill="white"/>
<path d="M13.4457 36.6623C15.3892 36.6623 16.9695 35.0813 16.9695 33.1378C16.9695 31.1943 15.3892 29.614 13.4457 29.614C11.5022 29.614 9.92188 31.1943 9.92188 33.1378C9.92188 35.0813 11.5022 36.6623 13.4457 36.6623ZM13.4457 30.8845C14.6882 30.8845 15.6997 31.8959 15.6997 33.1385C15.6997 34.3816 14.6882 35.3931 13.4457 35.3931C12.2031 35.3931 11.1917 34.3816 11.1917 33.1385C11.1917 31.8953 12.2031 30.8845 13.4457 30.8845Z" fill="white"/>
<path d="M62.5551 48.3937C60.6116 48.3937 59.0312 49.9746 59.0312 51.9181C59.0312 53.8616 60.6116 55.4426 62.5551 55.4426C64.4979 55.4426 66.0782 53.8616 66.0782 51.9181C66.0782 49.9746 64.4973 48.3937 62.5551 48.3937ZM62.5551 54.1721C61.3125 54.1721 60.3011 53.1607 60.3011 51.9175C60.3011 50.6743 61.3125 49.6629 62.5551 49.6629C63.7976 49.6629 64.8084 50.6743 64.8084 51.9175C64.8084 53.1607 63.7976 54.1721 62.5551 54.1721Z" fill="white"/>
<path d="M47.3871 63.5619C45.4436 63.5619 43.8633 65.1422 43.8633 67.0857C43.8633 69.0292 45.4436 70.6101 47.3871 70.6101C49.3306 70.6101 50.9109 69.0292 50.9109 67.0857C50.9109 65.1422 49.3299 63.5619 47.3871 63.5619ZM47.3871 69.3403C46.1445 69.3403 45.1331 68.3289 45.1331 67.0857C45.1331 65.8432 46.1445 64.8317 47.3871 64.8317C48.6296 64.8317 49.6411 65.8432 49.6411 67.0857C49.6411 68.3289 48.6296 69.3403 47.3871 69.3403Z" fill="white"/>
</svg>
