<svg width="75" height="75" viewBox="0 0 75 75" fill="none" xmlns="http://www.w3.org/2000/svg">
<mask id="mask0_71_857" style="mask-type:luminance" maskUnits="userSpaceOnUse" x="0" y="0" width="75" height="75">
<path d="M0 7.62939e-06H75V75H0V7.62939e-06Z" fill="white"/>
</mask>
<g mask="url(#mask0_71_857)">
<path d="M31.9766 44.9119L32.7427 46.1767C33.885 48.0622 34.4993 50.3242 34.4993 52.6445C34.4993 54.0619 34.2699 55.4663 33.8236 56.7815L32.8027 59.79H42.1974L41.1765 56.7815C40.7302 55.4663 40.5008 54.0619 40.5008 52.6445C40.5008 50.3242 41.1151 48.0622 42.2574 46.1767L43.0232 44.9124" stroke="white" stroke-width="2" stroke-miterlimit="10" stroke-linecap="round" stroke-linejoin="round"/>
<path d="M18.2456 15.929H11.3207C10.7214 15.929 10.2535 16.4441 10.3092 17.0407C10.4813 18.8858 10.8932 21.2871 11.8351 23.7758C13.4166 27.9544 16.0042 31.1989 19.5642 33.4818" stroke="white" stroke-width="2" stroke-miterlimit="10" stroke-linecap="round" stroke-linejoin="round"/>
<path d="M25.3796 41.4244C14.0327 38.5698 9.10339 31.1723 6.96457 25.3873C4.62477 19.0591 5.09821 13.3765 5.11945 13.1377C5.23737 11.8156 6.34538 10.802 7.67282 10.802H18.2461" stroke="white" stroke-width="2" stroke-miterlimit="10" stroke-linecap="round" stroke-linejoin="round"/>
<path d="M56.7559 15.9291H63.6808C64.28 15.9291 64.7479 16.4441 64.6922 17.0407C64.5951 18.0809 64.422 19.2979 64.1205 20.6078" stroke="white" stroke-width="2" stroke-miterlimit="10" stroke-linecap="round" stroke-linejoin="round"/>
<path d="M49.6211 41.4244C60.9681 38.5699 65.8976 31.1723 68.0364 25.3873C70.3762 19.0591 69.9027 13.3765 69.8815 13.1377C69.7636 11.8156 68.6556 10.802 67.3281 10.802H56.7549" stroke="white" stroke-width="2" stroke-miterlimit="10" stroke-linecap="round" stroke-linejoin="round"/>
<path d="M62.4573 25.444C60.8877 28.7582 58.603 31.4027 55.623 33.3606" stroke="white" stroke-width="2" stroke-miterlimit="10" stroke-linecap="round" stroke-linejoin="round"/>
<path d="M30.1513 1.09717H58.0375C58.7857 1.09717 59.3923 1.70391 59.3923 2.452V5.85366C59.3923 6.60176 58.7857 7.2085 58.0375 7.2085H16.9623C16.214 7.2085 15.6074 6.60176 15.6074 5.85366V2.452C15.6074 1.70391 16.214 1.09717 16.9623 1.09717H25" stroke="white" stroke-width="2" stroke-miterlimit="10" stroke-linecap="round" stroke-linejoin="round"/>
<path d="M37.5006 45.7175C26.8667 45.7175 18.2461 37.0969 18.2461 26.463V7.20854H56.7551V26.463C56.7551 37.0969 48.1345 45.7175 37.5006 45.7175Z" stroke="white" stroke-width="2" stroke-miterlimit="10" stroke-linecap="round" stroke-linejoin="round"/>
<path d="M49.1962 66.8464H25.8047V63.4464C25.8047 61.4271 27.4417 59.7901 29.4609 59.7901H45.5399C47.5592 59.7901 49.1962 61.4271 49.1962 63.4464V66.8464Z" stroke="white" stroke-width="2" stroke-miterlimit="10" stroke-linecap="round" stroke-linejoin="round"/>
<path d="M54.2932 73.9028H20.7077C20.1841 73.9028 19.7598 73.4785 19.7598 72.9549V67.7943C19.7598 67.2709 20.1841 66.8464 20.7077 66.8464H54.2932C54.8167 66.8464 55.2409 67.2709 55.2409 67.7943V72.9549C55.2409 73.4785 54.8167 73.9028 54.2932 73.9028Z" stroke="white" stroke-width="2" stroke-miterlimit="10" stroke-linecap="round" stroke-linejoin="round"/>
<path d="M38.8631 18.2794L40.272 21.1341C40.4933 21.5826 40.9213 21.8936 41.4163 21.9656L44.5667 22.4233C45.8133 22.6044 46.3111 24.1363 45.409 25.0155L43.1294 27.2377C42.7711 27.5869 42.6077 28.0899 42.6923 28.583L43.2304 31.7207C43.4434 32.962 42.1402 33.9089 41.0252 33.3226L38.2074 31.8414C37.7647 31.6085 37.2358 31.6085 36.793 31.8414L33.9752 33.3226C32.8603 33.9089 31.5572 32.962 31.77 31.7207L32.3082 28.583C32.3927 28.0899 32.2292 27.5869 31.8711 27.2377L29.5915 25.0155C28.6894 24.1363 29.1872 22.6044 30.4338 22.4233L33.5841 21.9656C34.0792 21.8936 34.5071 21.5826 34.7284 21.1341L36.1374 18.2794C36.6948 17.1497 38.3056 17.1497 38.8631 18.2794Z" stroke="white" stroke-width="2" stroke-miterlimit="10" stroke-linecap="round" stroke-linejoin="round"/>
</g>
</svg>
