<svg width="74" height="74" viewBox="0 0 74 74" fill="none" xmlns="http://www.w3.org/2000/svg">
<g clip-path="url(#clip0_71_822)">
<path d="M38.3008 3.52661C42.8824 3.52661 47.4062 4.48052 51.5977 6.33052C55.7168 8.13716 59.4313 10.7532 62.5242 14.0051C68.8258 20.5813 72.1356 29.47 71.6441 38.5754C71.4563 42.4344 70.618 46.2211 69.1437 49.7911C67.7273 53.2598 65.7328 56.454 63.2469 59.2579C58.1738 64.9958 51.2508 68.7825 43.6773 69.9821C41.7262 70.3 39.7605 70.459 37.7805 70.459C33.5891 70.4735 29.441 69.6497 25.5676 68.0165C21.752 66.3833 18.1387 63.9118 14.8289 60.6598C13.5859 59.4458 13.4992 58.0583 14.5688 56.8731C15.0602 56.295 15.7828 55.977 16.5344 55.9626C17.3004 55.977 18.0375 56.2661 18.6301 56.7575C19.0637 57.1043 19.5117 57.4657 19.9453 57.827C21.434 59.0411 22.9805 60.2985 24.7293 61.3247C28.7762 63.695 33.3867 64.9379 38.0695 64.9379C52.7395 64.9379 65.0391 53.7512 66.0797 39.486C67.1637 24.9751 58.0727 12.7188 44.0098 9.6981C42.0152 9.2645 39.9629 9.03325 37.925 9.03325C31.1176 9.03325 24.816 11.6204 19.1938 16.7223C18.4566 17.3872 17.7484 18.0809 17.0691 18.7458C16.7656 19.0493 16.4477 19.3528 16.1297 19.6563C15.407 20.35 15.2191 21.4196 15.6383 22.3157L15.7395 22.518L15.8262 22.7204C16.2164 23.5297 17.0258 24.0356 17.9074 24.0356H22.3734H25.1484C26.1746 24.0356 26.9984 24.2958 27.5332 24.7872C28.0246 25.2352 28.2703 25.9001 28.2848 26.7528C28.2992 27.6055 28.068 28.2559 27.6055 28.7184C27.0707 29.2532 26.2035 29.5422 25.0906 29.5422C21.6941 29.5422 18.3555 29.5422 15.1469 29.5422C11.866 29.5422 8.61406 29.5422 5.50664 29.5422C3.2375 29.5422 2.34141 28.6461 2.34141 26.377C2.32695 20.2778 2.32695 13.875 2.34141 6.79302C2.34141 5.72349 2.60156 4.87075 3.10742 4.32153C3.55547 3.83013 4.22031 3.58442 5.0875 3.58442H5.11641C5.98359 3.58442 6.63398 3.84458 7.06758 4.32153C7.55898 4.87075 7.81914 5.75239 7.83359 6.86528V11.8516V14.4532C7.83359 15.725 8.87422 16.7657 10.1461 16.7657C10.7098 16.7657 11.2445 16.5633 11.6637 16.202C11.9527 15.9563 12.1984 15.7395 12.4586 15.5227C12.9789 15.0891 13.427 14.6989 13.875 14.2508C18.6156 9.43794 23.6742 6.34497 29.3398 4.76958C32.2449 3.94575 35.2656 3.52661 38.3008 3.52661ZM38.3008 1.21411C35.0633 1.21411 31.8258 1.66216 28.7039 2.52935C22.2289 4.33599 16.8668 7.89146 12.2129 12.6321C11.6492 13.1958 11.0133 13.6872 10.1316 14.4532C10.1316 11.6204 10.1316 9.25005 10.1316 6.86528C10.1172 3.41099 8.19492 1.27192 5.10195 1.25747H5.05859C1.96563 1.25747 0 3.38208 0 6.76411C0 13.2969 0 19.8297 0.0144531 26.3625C0.0144531 29.918 1.93672 31.8258 5.49219 31.8403H15.1469H25.0906C28.4727 31.8403 30.6117 29.8313 30.5828 26.7239C30.5539 23.6887 28.4438 21.7231 25.1484 21.7086C24.2234 21.7086 23.2984 21.7086 22.3734 21.7086H17.9074C17.8496 21.5786 17.7773 21.4485 17.7195 21.3184C18.7168 20.35 19.6996 19.3672 20.7258 18.4278C25.7988 13.8172 31.5367 11.3313 37.9105 11.3313C39.7895 11.3313 41.6684 11.5481 43.5184 11.9383C56.425 14.7133 64.75 26.1168 63.7961 39.3125C62.7988 52.9852 50.716 62.6254 38.0984 62.6254C33.8203 62.6399 29.6145 61.4981 25.9289 59.3301C23.8477 58.1161 21.9977 56.4684 20.0898 54.9508C19.0926 54.1415 17.8496 53.679 16.5633 53.6501C15.1469 53.6501 13.8172 54.2571 12.8777 55.3122C10.9844 57.4079 11.1 60.1973 13.2246 62.293C20.2777 69.2305 28.5305 72.7571 37.7949 72.7571C39.8906 72.7571 41.9863 72.5836 44.0531 72.2512C60.8187 69.5629 73.1184 55.5434 73.9566 38.6622C74.9973 17.7774 58.0004 1.21411 38.3008 1.21411Z" fill="white"/>
</g>
<defs>
<clipPath id="clip0_71_822">
<rect width="74" height="74" fill="white"/>
</clipPath>
</defs>
</svg>
