<svg width="65" height="75" viewBox="0 0 65 75" fill="none" xmlns="http://www.w3.org/2000/svg">
<path d="M30.5527 43.2549C32.5688 43.2549 34.209 41.6147 34.209 39.5986C34.209 37.5826 32.5688 35.9424 30.5527 35.9424C28.5367 35.9424 26.8965 37.5826 26.8965 39.5986C26.8965 41.6147 28.5367 43.2549 30.5527 43.2549ZM30.5527 38.1396C31.3572 38.1396 32.0117 38.7941 32.0117 39.5986C32.0117 40.4031 31.3572 41.0576 30.5527 41.0576C29.7482 41.0576 29.0938 40.4031 29.0938 39.5986C29.0938 38.7941 29.7482 38.1396 30.5527 38.1396Z" fill="white"/>
<path d="M39.2012 46.5381C37.1851 46.5381 35.5449 48.1783 35.5449 50.1943C35.5449 52.2104 37.1851 53.8506 39.2012 53.8506C41.2172 53.8506 42.8574 52.2104 42.8574 50.1943C42.8574 48.1783 41.2172 46.5381 39.2012 46.5381ZM39.2012 51.6533C38.3967 51.6533 37.7422 50.9988 37.7422 50.1943C37.7422 49.3898 38.3967 48.7354 39.2012 48.7354C40.0057 48.7354 40.6602 49.3898 40.6602 50.1943C40.6602 50.9988 40.0057 51.6533 39.2012 51.6533Z" fill="white"/>
<path d="M41.4437 36.1629C40.9587 35.798 40.2699 35.8956 39.9053 36.3806L28.0916 52.0916C27.727 52.5766 27.8246 53.2654 28.3095 53.63C28.5074 53.7788 28.7391 53.8506 28.9688 53.8506C29.3023 53.8506 29.6318 53.6994 29.8477 53.4123L41.6614 37.7013C42.0261 37.2164 41.9286 36.5277 41.4437 36.1629Z" fill="white"/>
<path d="M54.8566 55.0941H47.3634L47.6168 54.1522L51.5827 51.5709C52.323 51.089 52.6311 50.1405 52.3153 49.3159L50.6241 44.8965L52.3153 40.4773C52.631 39.6525 52.3229 38.7043 51.5827 38.2221L47.6169 35.6409L46.3875 31.0714C46.158 30.2189 45.3502 29.6341 44.4693 29.6778L39.7436 29.9205L36.0631 26.9464C35.3761 26.3912 34.379 26.3915 33.6921 26.9464L30.0117 29.9205L25.286 29.6778C24.4039 29.6353 23.5975 30.2186 23.3678 31.0716L22.1383 35.6409L18.1724 38.2222C17.4324 38.704 17.1242 39.6523 17.4398 40.4772L19.131 44.8965L17.4398 49.3158C17.1242 50.1406 17.4322 51.089 18.1724 51.571L22.1382 54.1522L22.3916 55.0941H14.8983C13.8753 55.0941 13.043 55.9265 13.043 56.9495V73.1448C13.043 74.1679 13.8753 75.0002 14.8983 75.0002H54.8566C55.8797 75.0002 56.7122 74.1679 56.7122 73.1448V56.9495C56.7122 55.9263 55.8797 55.0941 54.8566 55.0941ZM24.2291 53.4662C24.1081 53.0168 23.8267 52.6294 23.4366 52.3755L19.5817 49.8665L21.2256 45.5709C21.392 45.136 21.392 44.6573 21.2256 44.2225L19.5816 39.9267L23.4365 37.4177C23.8266 37.1639 24.108 36.7764 24.229 36.3268L25.424 31.8853L30.0171 32.1213C30.4822 32.1462 30.9379 31.9972 31.2998 31.7047L34.8773 28.8138L38.4546 31.7044C38.8167 31.9971 39.2717 32.1454 39.7371 32.1213L44.3306 31.8853L45.5257 36.327C45.6467 36.7764 45.9281 37.1639 46.3182 37.4177L50.1731 39.9267L48.5292 44.2224C48.3628 44.6573 48.3628 45.136 48.5292 45.5707L50.1732 49.8665L46.3184 52.3755C45.9283 52.6294 45.6469 53.0168 45.5259 53.4664L45.0879 55.094H24.6671L24.2291 53.4662ZM29.9679 72.8028H15.2402V57.2914H29.9679V72.8028ZM54.5149 72.8028H39.7871V67.9688C39.7871 67.3619 39.2952 66.8702 38.6884 66.8702C38.0817 66.8702 37.5898 67.3619 37.5898 67.9688V72.8028H32.1652V57.2914H37.5898V62.8418C37.5898 63.4487 38.0817 63.9405 38.6884 63.9405C39.2952 63.9405 39.7871 63.4487 39.7871 62.8418V57.2912H54.5149V72.8028Z" fill="white"/>
<path d="M6.71669 34.7697C6.88324 34.8144 7.05243 34.8364 7.2203 34.8364C7.55546 34.8364 7.88622 34.7485 8.18417 34.5765L14.3153 31.0367C14.8407 30.7334 15.0207 30.0614 14.7174 29.536C14.414 29.0104 13.7421 28.8308 13.2166 29.1339L7.31361 32.5421L3.02089 25.1067L15.5348 17.8818L19.8275 25.3171L17.6567 26.5704C17.1313 26.8738 16.9513 27.5457 17.2546 28.0711C17.558 28.5967 18.2299 28.7763 18.7554 28.4732L44.0901 13.8463C45.0134 13.313 45.331 12.1281 44.7979 11.2045L40.2418 3.31309C39.7086 2.3898 38.5237 2.07251 37.6 2.60527L35.0153 4.09751L33.6801 1.78482C33.0705 0.729103 31.9797 0.0634775 30.762 0.00444425C29.5454 -0.0550284 28.394 0.502198 27.6852 1.4939L27.0641 2.36284C26.7112 2.8565 26.8255 3.54277 27.319 3.89551C27.8126 4.2481 28.4989 4.13413 28.8517 3.64063L29.4727 2.77168C29.7493 2.38482 30.1791 2.17666 30.6555 2.19922C31.1305 2.22222 31.5395 2.47168 31.7772 2.88359L33.1124 5.19629L23.9648 10.4776L25.8676 7.81543C26.2205 7.32178 26.1062 6.6355 25.6127 6.28277C25.1191 5.93003 24.4329 6.04414 24.0801 6.53765L22.2158 9.14595C20.779 8.38599 18.9946 8.35654 17.4862 9.22754C15.9779 10.0984 15.111 11.6584 15.0508 13.2827L5.68925 14.1932C4.47577 14.3114 3.41845 15.0291 2.86078 16.1132C2.30311 17.1972 2.33417 18.4748 2.94369 19.5305L4.2789 21.8431L1.69447 23.3352C1.24696 23.5936 0.926894 24.0105 0.7933 24.5097C0.65956 25.0086 0.728261 25.5299 0.986513 25.9773L5.54262 33.8686C5.80072 34.3159 6.21776 34.636 6.71669 34.7697ZM21.7303 24.2183L17.4376 16.7831L24.0538 12.9632L28.3466 20.3984L24.3322 22.7161L21.7303 24.2183ZM38.4705 4.63965L42.7633 12.0751L30.2494 19.3L25.9567 11.8647L38.4705 4.63965ZM18.5849 11.1304C19.7003 10.4864 21.0905 10.7372 21.9204 11.6579L17.3737 14.2829C16.9915 13.1038 17.4692 11.7745 18.5849 11.1304ZM4.84652 18.4319C4.60863 18.02 4.59706 17.5411 4.81459 17.1182C5.03212 16.6952 5.4285 16.4261 5.90194 16.3801L15.3294 15.4631L6.18173 20.7444L4.84652 18.4319Z" fill="white"/>
<path d="M43.3225 16.4615C42.9177 16.6361 42.6155 16.9966 42.5142 17.4255L40.5151 25.8758C40.3714 26.4829 40.6378 27.1002 41.1781 27.4121C41.3988 27.5394 41.6407 27.6018 41.8808 27.6018C42.2282 27.6018 42.5716 27.4711 42.8399 27.218L49.1584 21.2619C49.4792 20.9597 49.6403 20.5178 49.5892 20.0801C49.5382 19.6423 49.2798 19.2491 48.898 19.0285L44.5786 16.5349C44.197 16.3141 43.7273 16.2869 43.3225 16.4615ZM43.2645 23.7983L44.4062 18.9722L46.8731 20.3967L43.2645 23.7983Z" fill="white"/>
<path d="M63.7079 41.2785C63.3541 41.0154 62.8909 40.9336 62.4688 41.0605L54.1511 43.5542C53.5537 43.7334 53.1523 44.2727 53.1523 44.8965C53.1523 45.5202 53.5537 46.0596 54.1511 46.2387L62.4688 48.7326C62.5997 48.772 62.7346 48.7912 62.8689 48.7912C63.1678 48.7912 63.4638 48.6961 63.7077 48.5145C64.0613 48.2512 64.2724 47.831 64.2724 47.3902V42.4024C64.2726 41.9619 64.0615 41.5417 63.7079 41.2785ZM62.0753 46.3209L57.3248 44.8965L62.0753 43.4722V46.3209Z" fill="white"/>
<path d="M7.28623 41.0605C6.86406 40.9339 6.40073 41.0154 6.04712 41.2784C5.69351 41.5417 5.48242 41.9619 5.48242 42.4027V47.3905C5.48242 47.8313 5.69351 48.2515 6.04712 48.5148C6.29102 48.6963 6.58706 48.7913 6.88589 48.7913C7.02022 48.7913 7.15513 48.7721 7.28623 48.7329L15.6039 46.239C16.2013 46.0598 16.6026 45.5205 16.6026 44.8968C16.6026 44.273 16.2013 43.7337 15.6039 43.5545L7.28623 41.0605ZM7.67969 46.3209V43.4723L12.4302 44.8966L7.67969 46.3209Z" fill="white"/>
<path d="M49.6564 32.7535L51.9884 35.0857C52.2616 35.3586 52.6202 35.4953 52.9791 35.4951C53.3378 35.4951 53.6969 35.3586 53.9701 35.0854L56.3017 32.7538C56.5665 32.4891 56.7124 32.1371 56.7124 31.7627C56.7124 31.3885 56.5667 31.0366 56.302 30.7716L53.9704 28.4402C53.7057 28.1752 53.3537 28.0294 52.9792 28.0294C52.6048 28.0294 52.2528 28.1752 51.9881 28.4402L49.6564 30.7719C49.3918 31.0366 49.2461 31.3885 49.2461 31.7627C49.2459 32.1371 49.3917 32.4891 49.6564 32.7535ZM52.9791 30.5566L54.1854 31.7627L52.9791 32.9689L51.7728 31.7627L52.9791 30.5566Z" fill="white"/>
<path d="M9.32344 52.0231C8.77705 51.4769 7.88818 51.477 7.34194 52.0233L5.01035 54.355C4.74551 54.6197 4.59961 54.9716 4.59961 55.3461C4.59961 55.7207 4.74551 56.0725 5.01006 56.3371L7.3415 58.6684C7.6062 58.9335 7.9582 59.0794 8.33291 59.0794C8.70732 59.0794 9.05933 58.9337 9.32388 58.669L11.6555 56.3372C11.9203 56.0725 12.0662 55.7207 12.0662 55.3461C12.0662 54.9716 11.9203 54.6197 11.6558 54.3553L9.32344 52.0231ZM8.33276 56.5523L7.12661 55.3461L8.33276 54.14L9.53892 55.3461L8.33276 56.5523Z" fill="white"/>
</svg>
