<svg width="75" height="75" viewBox="0 0 75 75" fill="none" xmlns="http://www.w3.org/2000/svg">
<mask id="mask0_11_634" style="mask-type:luminance" maskUnits="userSpaceOnUse" x="0" y="0" width="75" height="75">
<path d="M0 7.62939e-06H75V75H0V7.62939e-06Z" fill="white"/>
</mask>
<g mask="url(#mask0_11_634)">
<path d="M70.0942 54.1729C72.1055 51.3237 73.9014 49.771 73.9014 49.771L70.9014 46.771C70.9014 46.771 69.3179 48.1553 67.8677 48.1553C65.6909 48.1553 64.1748 46.5059 60.9434 46.5059C57.8437 46.5059 55.4692 47.6939 55.4692 47.6939V46.5059H52.3053L51.6445 55.7388H55.4692C55.6479 54.5522 56.417 53.5298 57.5215 53.0596C58.4502 52.6655 59.7246 52.4502 61.3389 52.9028C62.6484 53.2705 63.1714 53.499 64.9206 53.4961C64.9206 53.4961 55.8662 57.7837 55.8662 70.7739H64.6362C64.6362 65.9824 65.896 61.8677 67.4883 58.5835" stroke="white" stroke-width="2" stroke-miterlimit="10" stroke-linecap="round" stroke-linejoin="round"/>
<path d="M19.5537 54.1669C21.562 51.3221 23.3564 49.7709 23.3564 49.7709L20.355 46.7709C20.355 46.7709 18.773 48.1552 17.3213 48.1552C15.1459 48.1552 13.6284 46.5057 10.3984 46.5057C7.29883 46.5057 4.92432 47.6937 4.92432 47.6937V46.5057H1.75879L1.09961 55.7386H4.92432C5.10303 54.5521 5.87207 53.5297 6.97656 53.0594C7.90381 52.6654 9.17822 52.4501 10.7938 52.9027C12.1021 53.2704 12.6249 53.4989 14.374 53.496C14.374 53.496 5.31968 57.7836 5.31968 70.7738H14.0913C14.0913 65.9794 15.3539 61.8617 16.9461 58.5761" stroke="white" stroke-width="2" stroke-miterlimit="10" stroke-linecap="round" stroke-linejoin="round"/>
<path d="M51.2155 39.5596C55.0739 34.0474 58.5558 31.0371 58.5558 31.0371L52.8781 25.3608C52.8781 25.3608 49.8839 27.9814 47.1388 27.9814C43.0226 27.9814 40.1528 24.8613 34.0402 24.8613C28.1749 24.8613 23.6837 27.1069 23.6837 27.1069V24.8613H17.6955L16.4473 42.3281H23.6837C24.0207 40.084 25.4767 38.1475 27.5656 37.2612C29.3219 36.5156 31.7331 36.1055 34.7887 36.9639C37.2643 37.6582 38.2531 38.0918 41.5636 38.0859C41.5636 38.0859 24.4323 46.1953 24.4323 70.7739H41.0259C41.0259 59.7378 44.5607 50.6001 48.4572 43.8809" stroke="white" stroke-width="2" stroke-miterlimit="10" stroke-linecap="round" stroke-linejoin="round"/>
<path d="M38.9223 5.10958L39.7724 6.83194C40.0034 7.29996 40.4497 7.62427 40.9661 7.69927L42.8669 7.9754C44.1672 8.16436 44.6865 9.76236 43.7455 10.6795L42.37 12.0203C41.9963 12.3844 41.8258 12.9093 41.9141 13.4234L42.2389 15.3166C42.4609 16.6117 41.1016 17.5993 39.9385 16.9878L38.2384 16.094C37.7767 15.8513 37.2247 15.8513 36.763 16.094L35.0628 16.9878C33.8998 17.5993 32.5404 16.6117 32.7625 15.3166L33.0873 13.4234C33.1756 12.9093 33.0049 12.3844 32.6314 12.0203L31.2559 10.6795C30.3149 9.76236 30.8342 8.16436 32.1345 7.9754L34.0353 7.69927C34.5517 7.62427 34.998 7.29996 35.229 6.83194L36.0791 5.10958C36.6606 3.93126 38.3408 3.93126 38.9223 5.10958Z" stroke="white" stroke-width="2" stroke-miterlimit="10" stroke-linecap="round" stroke-linejoin="round"/>
<path d="M54.7361 11.0044L55.3479 12.2442C55.5142 12.5811 55.8356 12.8146 56.2072 12.8687L57.5756 13.0675C58.5117 13.2035 58.8854 14.3539 58.208 15.0141L57.2179 15.9793C56.9488 16.2415 56.8262 16.6193 56.8897 16.9894L57.1235 18.3523C57.2834 19.2845 56.3048 19.9954 55.4674 19.5554L54.2437 18.9119C53.9112 18.7371 53.5139 18.7371 53.1816 18.9119L51.9575 19.5554C51.1202 19.9954 50.1419 19.2845 50.3018 18.3523L50.5353 16.9894C50.5989 16.6193 50.4761 16.2415 50.2072 15.9793L49.217 15.0141C48.5396 14.3539 48.9134 13.2035 49.8496 13.0675L51.2178 12.8687C51.5897 12.8146 51.911 12.5811 52.0772 12.2442L52.6891 11.0044C53.1079 10.1561 54.3174 10.1561 54.7361 11.0044Z" stroke="white" stroke-width="2" stroke-miterlimit="10" stroke-linecap="round" stroke-linejoin="round"/>
<path d="M20.2652 11.0044L19.6533 12.2442C19.487 12.5811 19.1656 12.8146 18.794 12.8687L17.4256 13.0675C16.4895 13.2035 16.1158 14.3539 16.7932 15.0141L17.7833 15.9793C18.0524 16.2415 18.175 16.6193 18.1115 16.9894L17.8777 18.3523C17.7178 19.2845 18.6964 19.9954 19.5338 19.5554L20.7575 18.9119C21.09 18.7371 21.4873 18.7371 21.8196 18.9119L23.0437 19.5554C23.881 19.9954 24.8593 19.2845 24.6994 18.3523L24.4659 16.9894C24.4023 16.6193 24.5251 16.2415 24.794 15.9793L25.7842 15.0141C26.4616 14.3539 26.0878 13.2035 25.1516 13.0675L23.7834 12.8687C23.4115 12.8146 23.0902 12.5811 22.924 12.2442L22.3121 11.0044C21.8933 10.1561 20.6838 10.1561 20.2652 11.0044Z" stroke="white" stroke-width="2" stroke-miterlimit="10" stroke-linecap="round" stroke-linejoin="round"/>
</g>
</svg>
