<svg width="107" height="107" viewBox="0 0 107 107" fill="none" xmlns="http://www.w3.org/2000/svg">
<path d="M13.9551 39.5036H54.0765" stroke="#215479" stroke-width="3" stroke-miterlimit="10" stroke-linecap="round" stroke-linejoin="round"/>
<path d="M13.9551 50.5162H54.0765" stroke="#215479" stroke-width="3" stroke-miterlimit="10" stroke-linecap="round" stroke-linejoin="round"/>
<path d="M13.9551 61.5287H54.0765" stroke="#215479" stroke-width="3" stroke-miterlimit="10" stroke-linecap="round" stroke-linejoin="round"/>
<path d="M13.9551 72.5413H54.0765" stroke="#215479" stroke-width="3" stroke-miterlimit="10" stroke-linecap="round" stroke-linejoin="round"/>
<path d="M13.9551 88.6805H34.0673" stroke="#215479" stroke-width="3" stroke-miterlimit="10" stroke-linecap="round" stroke-linejoin="round"/>
<mask id="mask0_27_1213" style="mask-type:luminance" maskUnits="userSpaceOnUse" x="0" y="0" width="107" height="107">
<path d="M0 1.52588e-05H107V107H0V1.52588e-05Z" fill="white"/>
</mask>
<g mask="url(#mask0_27_1213)">
<path d="M39.1644 21.3554H36.4472C35.3724 21.3554 34.5011 20.4841 34.5011 19.4093V14.3239C34.5011 13.2491 35.3724 12.3778 36.4472 12.3778H68.6239C69.6987 12.3778 70.5699 13.2491 70.5699 14.3239V19.4093C70.5699 20.4841 69.6987 21.3554 68.6239 21.3554H46.4914M83.8557 28.6243V7.75886C83.8557 4.34176 81.0856 1.57167 77.6683 1.57167H24.4949C22.854 1.57167 21.2801 2.2237 20.1198 3.38398L3.96054 19.5433C2.80026 20.7036 2.14844 22.2772 2.14844 23.9182V99.2497C2.14844 102.667 4.91852 105.437 8.33542 105.437H77.6683C81.0856 105.437 83.8557 102.667 83.8557 99.2497V97.1392" stroke="#215479" stroke-width="3" stroke-miterlimit="10" stroke-linecap="round" stroke-linejoin="round"/>
<path d="M74.5039 76.2755V92.1069C74.5039 93.4833 76.0132 94.3265 77.1854 93.6049L82.9331 90.0666C83.2158 89.8925 83.5356 89.8056 83.8551 89.8056C84.1749 89.8056 84.4948 89.8925 84.7774 90.0666L90.5251 93.6049C91.6973 94.3265 93.2063 93.4833 93.2063 92.1069V76.2755" stroke="#215479" stroke-width="3" stroke-miterlimit="10" stroke-linecap="round" stroke-linejoin="round"/>
<path d="M83.8554 69.3436C77.4665 69.3436 72.2873 64.1644 72.2873 57.7755C72.2873 51.3866 77.4665 46.2074 83.8554 46.2074C90.2443 46.2074 95.4235 51.3866 95.4235 57.7755C95.4235 64.1644 90.2443 69.3436 83.8554 69.3436ZM104.026 60.4214C102.938 58.825 102.938 56.726 104.026 55.1295C105.757 52.5889 104.623 49.0983 101.729 48.0602C99.9106 47.408 98.6768 45.7098 98.6185 43.779C98.5255 40.7063 95.5558 38.5487 92.6049 39.41C90.7506 39.9508 88.754 39.3021 87.572 37.7744C86.6313 36.559 85.2435 35.951 83.8554 35.951C82.4673 35.951 81.0797 36.559 80.139 37.7744C78.9568 39.3021 76.9604 39.9508 75.1061 39.41C72.155 38.5487 69.1855 40.7063 69.0923 43.779C69.034 45.7098 67.8002 47.408 65.982 48.0602C63.0884 49.0983 61.954 52.5889 63.6849 55.1295C64.7724 56.726 64.7724 58.825 63.6849 60.4214C61.954 62.9619 63.0884 66.4527 65.982 67.4908C67.8002 68.1428 69.034 69.8412 69.0923 71.772C69.1791 74.6355 71.7642 76.7043 74.5042 76.2754C74.7044 76.2443 74.9052 76.1998 75.1061 76.141C76.9604 75.6 78.9568 76.2487 80.139 77.7763C82.0203 80.2077 85.6907 80.2077 87.572 77.7763C88.754 76.2487 90.7506 75.6 92.6049 76.141C92.8058 76.1998 93.0066 76.2443 93.2066 76.2754C95.9468 76.7043 98.5319 74.6355 98.6185 71.772C98.6768 69.8412 99.9106 68.1428 101.729 67.4908C104.623 66.4527 105.757 62.9619 104.026 60.4214Z" stroke="#215479" stroke-width="3" stroke-miterlimit="10" stroke-linecap="round" stroke-linejoin="round"/>
<path d="M83.8552 46.2073C77.4664 46.2073 72.2871 51.3865 72.2871 57.7754C72.2871 64.1645 77.4664 69.3435 83.8552 69.3435C90.2441 69.3435 95.4233 64.1645 95.4233 57.7754C95.4233 51.3865 90.2441 46.2073 83.8552 46.2073Z" stroke="#215479" stroke-width="3" stroke-miterlimit="10" stroke-linecap="round" stroke-linejoin="round"/>
<path d="M21.9329 2.1275V17.5194C21.9329 19.6381 20.2155 21.3553 18.0972 21.3553H2.70508" stroke="#215479" stroke-width="3" stroke-miterlimit="10" stroke-linecap="round" stroke-linejoin="round"/>
</g>
</svg>
