<svg width="16" height="16" viewBox="0 0 16 16" fill="none" xmlns="http://www.w3.org/2000/svg">
<path d="M15.7465 15.0974L12.1657 11.5166C13.2647 10.2633 13.8711 8.67753 13.8711 6.99512C13.8711 5.15865 13.1558 3.43229 11.8574 2.13383C10.5589 0.835368 8.83256 0.120117 6.99609 0.120117C5.15963 0.120117 3.43327 0.835368 2.13481 2.13383C0.836344 3.43229 0.121094 5.15865 0.121094 6.99512C0.121094 8.83158 0.836344 10.5579 2.13481 11.8564C3.43327 13.1549 5.15963 13.8701 6.99609 13.8701C8.6785 13.8701 10.2643 13.2637 11.5175 12.1647L15.0984 15.7455C15.1879 15.835 15.3052 15.8798 15.4224 15.8798C15.5397 15.8798 15.657 15.835 15.7465 15.7455C15.9255 15.5665 15.9255 15.2764 15.7465 15.0974ZM2.78292 11.2083C1.65767 10.0828 1.03776 8.58653 1.03776 6.99512C1.03776 5.40371 1.65767 3.90741 2.78292 2.78194C3.90839 1.6567 5.40468 1.03678 6.99609 1.03678C8.5875 1.03678 10.0838 1.6567 11.2093 2.78194C12.3345 3.90741 12.9544 5.40371 12.9544 6.99512C12.9544 8.58653 12.3345 10.0828 11.2093 11.2083C10.0838 12.3335 8.5875 12.9535 6.99609 12.9535C5.40468 12.9535 3.90839 12.3335 2.78292 11.2083Z" fill="white"/>
</svg>
